<svg xmlns="http://www.w3.org/2000/svg" width="34.558" height="39.024" viewBox="0 0 34.558 39.024">
  <g id="Group_75" data-name="Group 75" transform="translate(-261.82 -189.526)">
    <path id="Path_127" data-name="Path 127" d="M289.364,227.441c-.039,0-.076-.007-.117-.007h-.213c-.029,0-.057.007-.086.007h-.084c-.033,0-.064.007-.1.008a.584.584,0,0,0-.083.005h-.6a.288.288,0,0,1-.058-.005c-.032-.005-.065,0-.1,0s-.072,0-.111-.005a.216.216,0,0,1-.042-.007.355.355,0,0,0-.053,0c-.325,0-.652,0-.977,0a.744.744,0,0,0-.094.007c-.029,0-.062,0-.092,0s-.043,0-.065,0-.042.007-.065.008a.318.318,0,0,0-.05,0h-.005c-.01-.018-.021-.037-.033-.054-.066-.1-.119-.2-.19-.3h0l-.007-.009a1.04,1.04,0,0,0-.065-.086c-.017-.02-.033-.043-.051-.064s-.038-.051-.059-.074-.043-.05-.069-.071a.837.837,0,0,0-.082-.107.715.715,0,0,1-.063-.079.885.885,0,0,1-.059-.084c-.034-.071-.065-.145-.093-.22s-.055-.13-.08-.2-.045-.14-.066-.209c-.012-.033-.018-.066-.032-.1a.583.583,0,0,0-.036-.105.794.794,0,0,1-.045-.1c-.016-.037-.034-.068-.047-.105a.978.978,0,0,0-.054-.112c-.009-.018-.018-.037-.026-.055s-.018-.032-.026-.049c-.032-.068-.055-.138-.091-.205a2.019,2.019,0,0,0-.219-.344,1.428,1.428,0,0,0-.138-.169,1.488,1.488,0,0,0-.141-.133c-.03-.021-.061-.042-.09-.065a.715.715,0,0,0-.105-.072c-.067-.029-.144-.053-.209-.086s-.136-.054-.2-.084a.661.661,0,0,0-.2-.07c-.024,0-.049,0-.072,0a.792.792,0,0,0-.08-.016,1.424,1.424,0,0,0-1.4.653.811.811,0,0,0-.095.122.415.415,0,0,1-.034.043.388.388,0,0,0-.016.041c-.014.03-.03.059-.045.091-.022.05-.036.1-.062.153a1.22,1.22,0,0,0-.065.175c-.013.036-.016.074-.03.109a.74.74,0,0,0-.028.092,1.563,1.563,0,0,0-.028.37v.09a.344.344,0,0,0,.013.091.581.581,0,0,1,0,.126.334.334,0,0,0,.014.09c0,.016,0,.033,0,.049a.332.332,0,0,1,.013.049.23.23,0,0,0,.011.055c.005.02,0,.038,0,.058s.017.065.025.1.011.061.018.09a.22.22,0,0,1,.013.036.245.245,0,0,0,.011.042c.008.028.018.058.024.084a.86.86,0,0,0,.049.138c.049.111.084.234.124.344a.96.96,0,0,1,.033.117c-.074.008-.147,0-.221.007-.034,0-.068,0-.1.005a.358.358,0,0,1-.064.007c-.04,0-.079,0-.119,0s-.076.007-.115.007h-.327c-.039,0-.079-.008-.119-.008h-.124c-.138,0-.274.015-.412.015h-.4c-.047,0-.095,0-.141,0-.022,0-.042-.008-.065-.008h-.5a.61.61,0,0,0-.07,0l-.054.007h-.105c-.142,0-.282.007-.423.007h-.772c-.051,0-.1.008-.154.007h-1c-.042,0-.084,0-.125,0s-.074-.008-.111-.008a.406.406,0,0,1-.08,0,.274.274,0,0,0-.046,0c-.039,0-.076-.008-.116-.007s-.057-.008-.087-.007-.067-.008-.1-.008h-.117a.557.557,0,0,1-.08-.008,1.1,1.1,0,0,0-.115,0h-.092a1.375,1.375,0,0,0-.195,0,.877.877,0,0,1-.117.005c-.032,0-.063.008-.095.008s-.078.007-.116.007H275.3c-.014-.074-.03-.146-.042-.22a3.455,3.455,0,0,0-.118-.375l-.012-.033a.12.12,0,0,1-.007-.024c0-.043-.008-.08-.016-.122,0-.016-.016-.041-.022-.059s-.012-.045-.02-.067-.032-.071-.046-.107a1.167,1.167,0,0,0-.1-.192.353.353,0,0,0-.055-.083.586.586,0,0,0-.071-.057l-.007-.007-.005-.008c-.011-.013-.025-.022-.036-.037a.312.312,0,0,0-.029-.043c-.036-.034-.078-.059-.116-.092a.507.507,0,0,0-.065-.053c-.02-.012-.042-.017-.062-.029l-.051-.029a.986.986,0,0,0-.126-.082.6.6,0,0,0-.112-.05.452.452,0,0,1-.091-.028.341.341,0,0,0-.055-.013c-.018,0-.037-.012-.057-.014s-.034,0-.053,0a.142.142,0,0,0-.051-.011c-.022,0-.087-.017-.14-.018l-.038-.007h-.007a.853.853,0,0,0-.115-.013h0l-.025,0c-.082,0-.159-.028-.241-.028h-.167a1.419,1.419,0,0,0-.167,0c-.022,0-.034.011-.055.013s-.057.009-.084.017-.063.029-.1.036a.475.475,0,0,0-.083.029l-.154.055a.706.706,0,0,0-.153.072,1.207,1.207,0,0,1-.14.091.943.943,0,0,0-.254.2c-.039.038-.084.072-.122.111s-.074.083-.112.125c-.079.092-.162.178-.237.277-.03.041-.062.084-.09.129s-.064.105-.1.154a.777.777,0,0,0-.128.25c0,.016-.009.025-.014.041l-.007.028-.021.071a.852.852,0,0,1-.046.125c-.013.03-.025.063-.037.095h-.471a.481.481,0,0,1-.1-.005.606.606,0,0,0-.12,0H270.1a.809.809,0,0,1-.126,0,.491.491,0,0,0-.065-.005c-.038,0-.075-.008-.113-.008-.063,0-.126-.007-.19-.007-.043,0-.083-.008-.126-.007h-.074c-.021,0-.04-.007-.062-.008-.074-.005-.15,0-.224,0h-.354a1.252,1.252,0,0,1-.223-.005.774.774,0,0,0-.146,0h-.029l.005-.017c.011-.028.018-.057.029-.084a.529.529,0,0,0,.013-.07.944.944,0,0,1,.038-.142c.016-.046.028-.091.046-.136a.821.821,0,0,0,.041-.154c.009-.045.02-.091.032-.14.007-.029.028-.055.036-.083a.474.474,0,0,1,.021-.07c.026-.057.041-.121.068-.178a4.123,4.123,0,0,0,.169-.381,2.236,2.236,0,0,1,.195-.388c.034-.059.065-.125.095-.186l.016-.033a5.82,5.82,0,0,0,.885-1.14c.262-.486.485-1.217.042-1.67a1.141,1.141,0,0,0-.093-.086,1.557,1.557,0,0,0-.967-.348h-.013a.548.548,0,0,0-.079-.013c-.054,0-.108,0-.162,0H268.6a.845.845,0,0,0-.163,0c-.067.014-.137.022-.207.039s-.155.047-.234.063a2.14,2.14,0,0,0-.357.129,1.147,1.147,0,0,0-.2.109c-.053.037-.1.082-.159.115a1.5,1.5,0,0,0-.278.255c-.047.046-.078.1-.124.15-.03.029-.062.059-.091.09s-.049.075-.079.107a3.369,3.369,0,0,0-.244.333c-.012.016-.03.026-.041.045s-.018.036-.03.054-.033.051-.049.078a1.767,1.767,0,0,1-.084.155.867.867,0,0,0-.062.1.2.2,0,0,1-.033.04.239.239,0,0,0-.028.051c-.022.041-.058.078-.083.116s-.049.08-.074.12-.047.068-.07.1-.034.062-.055.092c-.053.074-.095.149-.142.225s-.068.142-.1.212c-.026.054-.041.111-.068.163-.068.136-.129.275-.192.412a2.6,2.6,0,0,0-.157.375c-.03.111-.067.22-.1.328l-.018.041a.894.894,0,0,0-.041.1,3.147,3.147,0,0,1-.125.391c-.025.065-.051.137-.071.2a.652.652,0,0,0-.028.105c0,.016,0,.033,0,.049s-.01.022-.012.036,0,.041,0,.062a.089.089,0,0,1-.012.03.181.181,0,0,0,0,.046.147.147,0,0,1-.011.049.4.4,0,0,0,0,.055c0,.02-.012.037-.014.057a.43.43,0,0,1-.017.059h-.079c-.043,0-.084-.008-.128-.008s-.087-.008-.13-.007-.088-.008-.132-.008h-.136c-.028,0-.055,0-.083,0s-.043.007-.066.008c-.042,0-.083,0-.125,0a.505.505,0,0,0-.063,0,.4.4,0,0,1-.054.007,1.407,1.407,0,0,0-.149.005.735.735,0,0,1-.108,0l0-.018a.931.931,0,0,0,.038-.167c0-.021.007-.042.011-.065h0c.02-.088.033-.176.043-.254v-.009c.011-.078.018-.145.025-.187s.013-.082.02-.121a.726.726,0,0,0,.025-.076c.009-.041.017-.083.03-.125a2.034,2.034,0,0,0,.066-.292.712.712,0,0,0,.014-.076.226.226,0,0,1,.014-.055.318.318,0,0,0,0-.036c0-.012.009-.017.012-.028l.017-.07c.007-.028.007-.058.013-.084s.014-.028.014-.055v-.04a12.05,12.05,0,0,1,.479-1.383,10.452,10.452,0,0,1,1.071-2.277,15.052,15.052,0,0,1,1.19-1.414c.086-.092.173-.187.259-.283.084-.079.167-.159.258-.233s.149-.136.229-.2.18-.14.277-.2.168-.137.251-.2a1.778,1.778,0,0,1,.282-.173c.057-.032.116-.062.175-.091.241-.1.49-.178.733-.274.095-.037.187-.079.278-.122.157-.047.306-.093.464-.144.1-.032.211-.04.312-.071s.171-.057.263-.091l.029-.012c.029-.007.059-.014.091-.02a1.933,1.933,0,0,0,.192-.028,1.355,1.355,0,0,1,.167-.043,1.314,1.314,0,0,1,.192-.022.826.826,0,0,0,.18-.013.9.9,0,0,1,.179-.012.483.483,0,0,0,.1,0c.029-.007.037-.021.07-.025a1.905,1.905,0,0,0,.194,0l.013,0,.371.011c.974.025,1.945.016,2.919.017.159,0,.319,0,.479,0a.717.717,0,0,0,.038.128,1.6,1.6,0,0,1,.062.157,1.418,1.418,0,0,0,.041.151c.02.043.03.091.05.137s.054.1.076.157.043.086.062.13c.026.066.063.133.093.2s.059.1.086.15.057.082.079.124.041.083.066.122a1.272,1.272,0,0,0,.094.112,1.7,1.7,0,0,0,.507.413c.041.022.087.038.13.058a.361.361,0,0,0,.066.026c.028.007.057.008.084.014.054.011.109.028.163.041l.079.02a.366.366,0,0,0,.038,0c.017,0,.029.012.046.014a3.088,3.088,0,0,0,.333.012.752.752,0,0,0,.163,0c.055-.012.109-.021.163-.034.013,0,.028,0,.039,0s.014-.012.025-.014c.028-.007.058-.007.086-.013.058-.014.12-.032.176-.051.03-.011.057-.028.086-.038a.439.439,0,0,0,.086-.037c.054-.034.107-.075.162-.108a.87.87,0,0,0,.224-.241.707.707,0,0,0,.1-.178c.02-.054.035-.108.054-.163s.037-.112.051-.17a.3.3,0,0,0,.013-.078.372.372,0,0,1,.013-.086,1.175,1.175,0,0,0,0-.2.806.806,0,0,0,0-.187,1.669,1.669,0,0,1-.009-.354v-.215a10.9,10.9,0,0,1,1.618.026c.967.032,1.932.075,2.9.108.211.007.421.009.633.011v0h.086l.012,0c.059,0,.121,0,.18,0,.028,0,.057,0,.084,0s.053.014.083.014c.057,0,.112,0,.167,0h.169a.42.42,0,0,1,.083.014.45.45,0,0,0,.084,0,.646.646,0,0,1,.167.011.751.751,0,0,0,.18,0,.2.2,0,0,1,.059.011.272.272,0,0,0,.08,0,.79.79,0,0,1,.178.017c.009,0,.018.009.032.011s.028,0,.042,0,.043.013.07.014a.224.224,0,0,1,.042,0c.013,0,.013.012.026.016s.029-.005.043,0,.021.012.041.015a.481.481,0,0,1,.144.051c.041.02.084.036.125.057s.1.036.15.062.084.05.125.078.092.057.136.09l.024.017c.009.014.017.028.029.043s.058.054.084.083c.055.058.1.129.144.19s.1.141.145.212c.1.146.176.3.267.446a4.088,4.088,0,0,1,.263.478c.074.167.148.336.23.5l.043.09c-.166.3-.329.6-.515.87l-.005,0a.777.777,0,0,1-.068.063.591.591,0,0,0-.062.051c-.028.026-.05.058-.075.086a1.45,1.45,0,0,1-.137.117,1.426,1.426,0,0,1-.262.192.6.6,0,0,0-.08.059.784.784,0,0,1-.1.055c-.083.05-.169.1-.254.141a.962.962,0,0,0-.134.078c-.021.014-.041.026-.062.039s-.042.04-.066.057a.648.648,0,0,0-.117.091c-.025.028-.045.061-.068.088a1.217,1.217,0,0,0-.15.2,2.067,2.067,0,0,0-.115.229,1.073,1.073,0,0,0-.058.228c-.007.039-.021.079-.028.118,0,.017,0,.036,0,.051a.3.3,0,0,0-.013.059.432.432,0,0,0,.007.117.226.226,0,0,1,.005.059c0,.02.012.033.015.053a.623.623,0,0,0,.025.1v0a1.67,1.67,0,0,0,.465.869,1.289,1.289,0,0,0,.392.265,2.081,2.081,0,0,0,1.658.1,1.2,1.2,0,0,0,.2-.087c.076-.04.138-.094.213-.134.1-.051.191-.1.286-.151l.03-.018a.15.15,0,0,0,0,.024.3.3,0,0,1,.011.032.4.4,0,0,1,.014.1c0,.053.014.1.014.153,0,.032.012.054.013.084a.608.608,0,0,0,.011.1c.008.028,0,.055.007.083l.022.084c.007.026,0,.054.005.08,0,.007.009.021.011.03l.012.042c.007.028,0,.055.005.082,0,.009.011.016.012.03a.225.225,0,0,0,0,.042.223.223,0,0,1,.012.042.15.15,0,0,0,0,.042c0,.013.012.013.014.026s-.005.038,0,.057a.68.68,0,0,1,.029.153c0,.032.013.054.014.084a.23.23,0,0,0,0,.042c0,.017.013.021.014.041s.013.055.014.084a.538.538,0,0,0,0,.08.246.246,0,0,1,.012.03c0,.014-.005.03,0,.043s.012.012.013.021a.28.28,0,0,1,0,.047.357.357,0,0,0,.014.07.413.413,0,0,0,0,.042c0,.016.013.026.016.042s0,.028,0,.042.012.026.014.041,0,.029,0,.042.013.034.016.054a.345.345,0,0,0,0,.074.152.152,0,0,1,.011.043c0,.028.009.051.013.079s.007.047.01.07ZM271.518,208.5c0-.2,0-.2,0-.491,0-.08,0-.142,0-.279s.021-.4.029-.56c.025-.478.054-.731.082-1.209l.137-2.354a8.433,8.433,0,0,1,.07-.877c.057-.341.092-.685.118-1.028.008-.111.024-.221.041-.332l0-.018c.01-.034.026-.076.036-.115.02-.078.024-.159.042-.237.009-.037.016-.076.024-.111s.024-.08.037-.119a.759.759,0,0,0,.025-.119c.008-.042.024-.084.03-.126,0-.008,0-.02,0-.028s.009-.011.011-.017,0-.036,0-.053.013-.024.014-.049.012-.045.014-.07a2.115,2.115,0,0,1,.045-.213c.017-.068.055-.138.067-.212,0-.008,0-.02,0-.028s.011-.012.013-.022l.014-.054c.009-.037.016-.074.029-.112s.016-.068.025-.1c.005-.02,0-.038,0-.057s.013-.034.017-.055c.009-.038.03-.074.038-.112s.026-.084.036-.125a1.716,1.716,0,0,1,.063-.209,1.756,1.756,0,0,0,.055-.223l.014-.058h.173a.815.815,0,0,1,.1.008.506.506,0,0,0,.063,0l.045.005c.043.007.087.018.13.021h.049a.264.264,0,0,1,.055.007.425.425,0,0,0,.071,0c.028,0,.051.008.078.009a.789.789,0,0,1,.1,0c.038.005.076,0,.115.008s.1.005.144.014.076.007.113.012.092.011.14.016a.637.637,0,0,0,.071,0c.033,0,.065.008.1.009a.947.947,0,0,1,.15,0,.292.292,0,0,0,.046.005l.043.005a.134.134,0,0,0,.033.005c.072,0,.144,0,.215,0h.092c.083.009.166.021.246.029a1.733,1.733,0,0,0,.32-.011c.03,0,.058.009.088.009a.26.26,0,0,1,.045,0,.544.544,0,0,0,.082.007.518.518,0,0,0,.079.009.269.269,0,0,1,.072.007.264.264,0,0,0,.054.012.16.16,0,0,1,.036,0c.014,0,.024.008.038.009s.051,0,.078,0h.2a.717.717,0,0,0,.037.144,1.3,1.3,0,0,0,.541.632c.068.043.124.1.191.145.188.124.354.294.532.432.084.066.165.136.249.2a1.812,1.812,0,0,1,.191.173c.061.059.122.12.188.175.029.025.058.051.088.075.113.092.331.226.482.146s.173-.321.17-.475a1.453,1.453,0,0,0-.093-.465c-.034-.1-.086-.194-.113-.291-.068-.23-.195-.429-.28-.652-.029-.075-.062-.15-.1-.224a.478.478,0,0,0,.075,0c.061,0,.12,0,.18,0,.082,0,.163-.005.245,0,.145.008.292,0,.437,0,.117,0,.233.009.35,0l.167-.009.014.005c.028,0,.058,0,.086,0a.363.363,0,0,0,.065-.009.527.527,0,0,1,.079,0c.125,0,.248-.017.371-.028.1,0,.195-.005.294-.007.079,0,.157-.005.236-.011h.174a1.529,1.529,0,0,1,.28.007.845.845,0,0,0,.153,0h.169c.054,0,.107,0,.161-.005a11.7,11.7,0,0,0,1.254-.014l.162-.009.037,0c.09,0,.175.009.265.009h.159a1.006,1.006,0,0,0,.125-.007c.05-.008.1,0,.153-.009a1.126,1.126,0,0,1,.176,0c.033,0,.065-.008.1-.009s.087,0,.13,0h.348c.051,0,.1-.011.151-.009a.685.685,0,0,0,.116-.017c.032,0,.062,0,.093-.008.084-.014.173-.012.257-.028.04-.007.08-.008.12-.013s.08,0,.12-.008c.1-.016.2-.009.3-.029a1.311,1.311,0,0,1,.176-.016c.066-.005.132-.016.2-.024l.207-.022.092-.011c.04-.005.082,0,.121-.007a.908.908,0,0,1,.12-.007c.024,0,.046-.009.07-.009s.042,0,.063,0,.07-.012.1-.016c.086-.012.173-.012.258-.021l.154-.017a1.3,1.3,0,0,1,.158-.018c.041,0,.079-.009.12-.008a.742.742,0,0,0,.108-.008h.02l.017.029a1.559,1.559,0,0,0,.091.157.366.366,0,0,1,.049.07c.011.025.02.047.032.07.025.05.046.1.072.153.05.091.079.184.128.274s.084.211.134.312l.024.047c.012.032.024.062.037.092a.2.2,0,0,0,0,.028c0,.026.012.054.017.08s.011.016.012.032a.357.357,0,0,0,0,.038c0,.005.01.009.012.017s0,.028,0,.042a.923.923,0,0,0,.042.125c.018.047.03.1.049.144.008.021.011.045.017.067s.02.034.025.054a.829.829,0,0,1,.03.14.324.324,0,0,0,.014.071c0,.009.011.012.013.021a.292.292,0,0,0,0,.034c0,.013.012.021.014.034s0,.021,0,.032.018.034.022.049c.011.036.025.068.034.105s.038.095.049.142.016.1.032.14c.005.016.02.024.025.041s0,.021,0,.029a.514.514,0,0,0,.025.055c.017.043.025.088.043.133l.008.021v0c.024.126.055.25.087.375s.055.23.09.345.049.215.086.319.067.208.1.312c.018.049.034.1.053.146.111.287.236.564.363.844.03.07.054.138.086.207.04.088.082.175.126.259a2.015,2.015,0,0,0,.332.494c.137.133.258.279.4.411a4.786,4.786,0,0,0,.466.382c.1.076.2.155.306.228s.219.125.331.188c.431.24.857.482,1.276.744.183.115.362.236.544.353.166.108.324.24.483.358a1.841,1.841,0,0,1,.433.424,3.3,3.3,0,0,1,.237.378,1.56,1.56,0,0,1,.113.445,1.478,1.478,0,0,1-.15,1.006.783.783,0,0,1-.252.288,1.515,1.515,0,0,1-.91.217,3.334,3.334,0,0,1-.9-.225c-.154-.061-.3-.146-.454-.22-.346-.167-.674-.363-1.009-.553-.4-.228-.811-.445-1.2-.691-.1-.065-.2-.14-.3-.207s-.2-.125-.306-.188-.229-.167-.332-.046a.73.73,0,0,0-.133.3c-.066.3-.1.481-.142.73v.008c-.005.03-.012.062-.02.091s-.01.046-.018.071c-.014.045-.025.091-.036.136-.005.021-.012.045-.016.065a.309.309,0,0,0-.013.058.658.658,0,0,1-.013.074.177.177,0,0,1,0,.025l-.005.012c0,.008,0,.016,0,.024l-.007.022a.371.371,0,0,1,0,.038l-.005.013v.009l0,.011c-.012.038-.025.075-.034.115l-.021.087a.285.285,0,0,0-.013.045l-.007.042a.416.416,0,0,1-.013.042.271.271,0,0,1-.013.043l-.012.038-.007.032a17.918,17.918,0,0,0-1.52-1.115l0,0a.33.33,0,0,0-.043-.032c-.063-.045-.13-.086-.192-.133-.034-.026-.071-.05-.108-.074a.415.415,0,0,0-.045-.028.12.12,0,0,1-.033-.022c-.01-.009-.025-.015-.036-.022l-.026-.02c-.009-.007-.022-.009-.033-.016s-.018-.016-.03-.022l-.054-.033q-.051-.032-.107-.059c-.034-.017-.067-.04-.1-.059l-.024-.012c-.009-.005-.02-.007-.029-.012a.221.221,0,0,0-.043-.021c-.072-.025-.141-.072-.212-.1s-.143-.058-.212-.093a1.735,1.735,0,0,0-.207-.095c-.034-.012-.068-.021-.1-.033l-.107-.037-.105-.03-.025-.008-.025,0c-.016,0-.033-.014-.049-.018l-.059-.013-.018-.007h-.014l-.007-.005h-.018l-.008-.005-.025-.007-.029-.007-.02-.007-.058-.013h-.013l-.011-.005a.173.173,0,0,0-.025,0,.093.093,0,0,0-.033-.007.077.077,0,0,1-.025-.005.177.177,0,0,0-.026,0,.154.154,0,0,0-.026-.007.113.113,0,0,1-.025-.008c-.009,0-.018,0-.026,0l-.055-.013a.24.24,0,0,1-.03,0c-.008,0-.011-.007-.021-.007l-.024,0-.026,0c-.009,0-.012-.005-.022-.007a.114.114,0,0,1-.022-.007c-.008,0-.017,0-.026,0a.077.077,0,0,0-.025-.005.124.124,0,0,1-.032,0,.05.05,0,0,0-.021-.005.224.224,0,0,1-.051,0,.307.307,0,0,0-.033-.008h-.033c-.017,0-.037,0-.054,0s-.021-.007-.033-.008h-.183a.184.184,0,0,0-.029.008c-.041.007-.084-.005-.125,0a.38.38,0,0,1-.038.007.276.276,0,0,1-.033,0h-.026c-.012,0-.018.005-.029.007a.3.3,0,0,1-.059,0c-.018,0-.033.007-.051.007a.279.279,0,0,0-.033,0c-.009,0-.016.007-.025.007s-.034.005-.053.007-.043.011-.065.013-.046,0-.067.007c-.043.009-.086.014-.128.024l-.039.009c-.008,0-.017,0-.025,0a.158.158,0,0,1-.026.007H282.9l-.058.018-.021.008-.018.005c-.014,0-.03,0-.045.007l-.053.013c-.028.008-.058.009-.083.018s-.062.016-.091.029-.068.02-.1.032-.092.029-.137.046l-.125.041a1.188,1.188,0,0,0-.179.078c-.042.021-.088.041-.129.065a1.728,1.728,0,0,0-.217.138l-.13.1c-.043.034-.082.072-.124.105a1.289,1.289,0,0,0-.242.237c-.03.041-.067.075-.1.115s-.078.08-.109.125l-.083.117a.923.923,0,0,0-.065.117l-.021.034c-.028.038-.055.078-.079.119a4.2,4.2,0,0,0-.229.454,4.473,4.473,0,0,0-.24.6,3.028,3.028,0,0,0-.125.431,1.95,1.95,0,0,0-.042.482,2.874,2.874,0,0,0,.057.583,3.022,3.022,0,0,0,.18.627,2.321,2.321,0,0,0,.212.452,4.289,4.289,0,0,0,.315.411,5.67,5.67,0,0,0,1.466.969c.105.055.217.093.327.141.3.128.6.254.9.362.161.057.32.116.477.179a7.686,7.686,0,0,0,1.035.329c.126.032.252.067.379.095l.07.013.008.007c.013,0,.028,0,.041.005s.016.012.032.013.063,0,.092.009.017.011.03.014a.119.119,0,0,0,.043,0c.017,0,.021.008.034.012a.124.124,0,0,0,.032.007.886.886,0,0,0,.1.03c.029.008.058.011.087.017a.056.056,0,0,0,.021.007h.014c.013,0,.026.011.038.013a.541.541,0,0,0,.078.016c.012,0,.017.007.028.008s.016,0,.022,0l.021.008a.493.493,0,0,1,.087.021c.009,0,.02,0,.029.007l.014.008h.014l.008.005h.021l.013.008c.008,0,.016,0,.022,0l.021.008a.173.173,0,0,1,.037,0,.1.1,0,0,0,.021.005.1.1,0,0,1,.029,0c.026.007.053.009.079.013a.457.457,0,0,1,.072.021c.016.005.033.005.049.009l.008.005c.011,0,.02,0,.03,0a.1.1,0,0,0,.021.007h.03l.008.005.041.007.036.008c.014,0,.029,0,.043.007a.064.064,0,0,0,.022,0c.011,0,.012.007.021.008s.012,0,.018,0l.017.005c.014,0,.029,0,.042,0l.016.005c.007,0,.014,0,.022,0a.216.216,0,0,0,.042.007h.043a.078.078,0,0,1,.026.005c-.02.063-.041.128-.057.194h0l0,.011a.285.285,0,0,0-.02.057.082.082,0,0,0,0,.018l0,.016,0,.011v.013l-.016.068v0c-.007.028-.018.059-.028.087s-.016.054-.024.084-.013.038-.02.057-.005.028-.011.042-.008.036-.013.054-.008.013-.009.022,0,.018,0,.028l0,.016a.3.3,0,0,0-.012.037l0,.028c-.012.042-.025.083-.039.125-.025.074-.047.147-.07.221a.328.328,0,0,0-.022.042l-.008.026c-.041,0-.082-.009-.125-.009s-.063-.012-.1-.013c-.018,0-.037,0-.055,0s-.036-.012-.057-.014a.384.384,0,0,0-.055,0,.262.262,0,0,1-.055-.014.606.606,0,0,0-.1,0h-.433c-.028,0-.061,0-.093-.005a.171.171,0,0,0-.045-.009.688.688,0,0,1-.14-.011.668.668,0,0,0-.154,0H284.4l-.041,0h-.043c-.024-.005-.029-.015-.055-.015h-.445l-.116,0h0c-.05,0-.1,0-.15,0l-.049-.005a1.443,1.443,0,0,0-.292-.008h-.3l-.053-.005c-.046-.005-.094.005-.14,0-.028,0-.053-.009-.082-.011s-.041,0-.061,0a.624.624,0,0,0-.1-.012c-.039,0-.072-.011-.111-.013s-.067,0-.1,0-.057-.009-.087-.012a1.846,1.846,0,0,0-.191,0h-.621c-.083,0-.162-.012-.244-.012-.043,0-.083-.011-.125-.012a.722.722,0,0,1-.119,0,1.8,1.8,0,0,0-.208-.008c-.072-.005-.146-.025-.22-.024-.036,0-.068-.011-.1-.012s-.07,0-.1,0-.084-.012-.128-.012a.429.429,0,0,1-.092,0,.894.894,0,0,0-.2-.009c-.043,0-.083-.012-.126-.012h-.336c-.092,0-.183.012-.275.012h-.273c-.09,0-.176-.012-.266-.012h-.228c-.15,0-.3.011-.452,0-.045,0-.083-.012-.128-.012h-.521a1.205,1.205,0,0,1-.195,0,.7.7,0,0,0-.105-.011.79.79,0,0,1-.079,0,.432.432,0,0,0-.092-.012.338.338,0,0,1-.09-.007c-.036-.008-.067,0-.1-.005a.394.394,0,0,0-.078-.012c-.055,0-.107-.012-.162-.012a2.426,2.426,0,0,0-.324-.012.544.544,0,0,1-.079.012.443.443,0,0,0-.072,0,.276.276,0,0,1-.067.011c-.02,0-.039,0-.059,0l-.024,0a.356.356,0,0,0-.046-.013.566.566,0,0,0-.125,0,.637.637,0,0,1-.072-.012.424.424,0,0,0-.058,0c-.05,0-.1,0-.153,0-.024,0-.043-.011-.067-.013a.582.582,0,0,0-.083,0H273.8a.812.812,0,0,1-.17-.007,1.528,1.528,0,0,0-.311-.005l-.037,0-.011-.014c-.026-.016-.1,0-.133,0-.047,0-.086-.014-.132-.014-.191,0-.382,0-.573,0h-.25a.412.412,0,0,1-.07,0c-.021,0-.034-.013-.057-.014-.038,0-.079,0-.119,0h-.118a.057.057,0,0,0,0-.021c-.008-.037-.017-.074-.025-.111a.3.3,0,0,1,0-.049.278.278,0,0,0-.014-.057.306.306,0,0,1,0-.049.467.467,0,0,0-.014-.062.2.2,0,0,1,0-.049.139.139,0,0,0-.011-.049.2.2,0,0,1,0-.057.382.382,0,0,0-.016-.055c-.005-.034.008-.071,0-.105a.29.29,0,0,1-.013-.049c0-.02,0-.042,0-.062v-.105c0-.016,0-.032,0-.049a.324.324,0,0,0-.014-.062,1.24,1.24,0,0,1,0-.209.563.563,0,0,0,0-.105.3.3,0,0,1-.013-.049c0-.02,0-.041,0-.062a.322.322,0,0,0,0-.05c0-.016-.013-.022-.016-.041a.8.8,0,0,0,0-.112.339.339,0,0,1-.011-.1v-.055a.184.184,0,0,0-.011-.045c-.008-.033,0-.07-.005-.1a.446.446,0,0,1-.012-.112c0-.038-.015-.067-.015-.1a.636.636,0,0,0,0-.112c0-.017-.013-.032-.016-.049s0-.038,0-.057a.635.635,0,0,0,0-.112c0-.013-.012-.02-.016-.033a.413.413,0,0,1,0-.057v-.1a.913.913,0,0,0-.011-.217v-.005c0-.057,0-.115,0-.175,0-.136.008-.271,0-.407s-.009-.232-.013-.386c0-.066,0-.121,0-.211-.005-.182-.007-.363-.009-.546,0-.116-.008-.23-.013-.346V211.7c0-.6-.043-1.19-.041-1.786,0-.32.009-.64.009-.96v-.188C271.524,208.7,271.518,208.561,271.518,208.5Zm19.474,19.948a4.564,4.564,0,0,0-.1-.988.291.291,0,0,0,0-.049.553.553,0,0,1-.005-.092.364.364,0,0,1-.008-.036.208.208,0,0,1,0-.029c0-.024-.008-.042-.008-.065,0-.042-.014-.082-.013-.122a.165.165,0,0,0,0-.037.055.055,0,0,1,0-.021.208.208,0,0,0,0-.029.173.173,0,0,0-.007-.025c-.008-.04,0-.08-.013-.119a.216.216,0,0,1,0-.058c0-.022-.008-.042-.008-.065s-.007-.046-.007-.068a.568.568,0,0,0-.008-.068l-.008-.03c0-.016,0-.032,0-.047s-.008-.041-.013-.062c-.008-.038-.016-.076-.021-.113s-.022-.087-.03-.13-.016-.09-.026-.134c-.005-.022-.008-.043-.014-.066s-.005-.039-.011-.058l-.009-.033,0-.025a.513.513,0,0,1-.016-.061c0-.045-.011-.09-.013-.134a.532.532,0,0,0-.016-.074.338.338,0,0,0,0-.037c0-.028-.012-.049-.014-.076s0-.04,0-.058-.012-.062-.014-.095a6.913,6.913,0,0,0-.122-.73c-.011-.061-.024-.12-.034-.182s-.032-.119-.038-.18a2.631,2.631,0,0,0-.074-.362c-.029-.116-.062-.23-.092-.345q-.006-.047-.016-.095a.463.463,0,0,1-.013-.076.379.379,0,0,0-.016-.055c-.007-.041-.008-.083-.016-.122,0-.012-.009-.014-.012-.03a.106.106,0,0,0,0-.029c0-.011-.009-.018-.013-.029s0-.026,0-.041c-.011-.039-.014-.079-.025-.118a.3.3,0,0,1-.013-.076.379.379,0,0,0-.016-.055c-.007-.041-.005-.086-.016-.126s-.017-.082-.028-.125-.026-.083-.036-.125-.02-.072-.032-.112a.933.933,0,0,0-.028-.112l-.007-.016v0c-.007-.032-.017-.058-.025-.088a.363.363,0,0,1-.01-.038.2.2,0,0,0-.011-.037c-.013-.062-.026-.119-.042-.179,0-.017,0-.034-.007-.053a.206.206,0,0,1-.01-.037.632.632,0,0,0-.021-.1,1.068,1.068,0,0,0-.049-.159c-.018-.049-.024-.1-.041-.154-.024-.067-.046-.134-.068-.2s-.046-.121-.072-.18a.182.182,0,0,0-.017-.026c-.012-.041-.022-.082-.038-.121-.037-.1-.075-.191-.115-.29a1.92,1.92,0,0,0-.109-.229.943.943,0,0,0-.051-.145c-.024-.049-.049-.1-.075-.145-.059-.109-.109-.217-.174-.324-.028-.045-.046-.1-.071-.144-.013-.025-.03-.051-.045-.076s-.025-.058-.039-.087c-.058-.112-.12-.228-.188-.336l-.051-.108-.007-.013-.008-.014c-.032-.063-.062-.126-.093-.191a.337.337,0,0,0-.017-.038l-.016-.025-.013-.024c-.058-.1-.116-.2-.167-.307s-.095-.216-.157-.317c-.028-.047-.066-.083-.1-.129l-.028-.04,0-.009c.017-.036.03-.07.046-.1s.013-.058.024-.084a.445.445,0,0,0,.026-.065,1.686,1.686,0,0,1,.046-.179c.011-.032.014-.064.025-.1h.007l.013-.041c.012-.043.025-.088.034-.132s.021-.076.032-.115c.095-.361.2-.722.307-1.078.088-.291.144-.59.208-.888.057-.259.129-.518.188-.777s.1-.528.151-.794c.1-.545.2-1.089.295-1.635.049-.271.083-.544.125-.816.071-.46.145-.922.2-1.384l0-.038c.017.011.036.025.046.032a.44.44,0,0,0,.066.043c.034.02.066.043.1.063.274.162.541.338.823.483.263.136.535.253.8.375a8.294,8.294,0,0,0,.859.319,4.689,4.689,0,0,0,.712.175,5.017,5.017,0,0,0,.782.058,1.942,1.942,0,0,0,.859-.251,1.656,1.656,0,0,0,.448-.382,2.172,2.172,0,0,0,.51-1.061,2.377,2.377,0,0,0,.045-.766,2.677,2.677,0,0,0-.234-.762,4.285,4.285,0,0,0-.64-.916,9.057,9.057,0,0,0-2.221-1.658,7.822,7.822,0,0,1-.652-.466,6.843,6.843,0,0,1-.884-.807,8.131,8.131,0,0,1-.657-1.089c-.026-.04-.049-.082-.071-.124a1.033,1.033,0,0,0-.059-.121c-.017-.036-.034-.072-.05-.109-.005-.018-.005-.034-.009-.051s-.03-.058-.039-.087a.945.945,0,0,0-.074-.192.289.289,0,0,1-.039-.078c-.011-.034-.014-.067-.026-.1s-.02-.066-.032-.1l-.012-.037c0-.013-.012-.029-.014-.041a.56.56,0,0,0-.028-.112c-.009-.022-.021-.047-.028-.07s-.021-.057-.028-.084-.02-.065-.026-.092c-.016-.066-.025-.128-.045-.192s-.045-.122-.063-.188c-.011-.037-.014-.074-.022-.109s-.02-.053-.026-.079c-.014-.058-.046-.117-.057-.18-.005-.034-.008-.063-.016-.1s-.018-.058-.025-.091a1.689,1.689,0,0,0-.057-.2c-.005-.018-.008-.038-.013-.057s-.012-.029-.014-.041,0-.032-.007-.05-.014-.026-.017-.038c-.034-.115-.08-.236-.113-.353a2.1,2.1,0,0,0-.128-.382c-.028-.057-.059-.118-.083-.175v0a2.188,2.188,0,0,0-.075-.291c-.013-.059-.041-.115-.05-.173a.316.316,0,0,0-.013-.07.741.741,0,0,1-.025-.07c-.012-.051-.033-.1-.045-.154a.561.561,0,0,0-.042-.125c-.007-.014-.017-.029-.025-.043a.965.965,0,0,1,.137-.012c.03,0,.059-.007.091-.009s.091-.013.137-.02c.095-.014.192-.017.288-.029s.2-.029.294-.043c.071-.011.141-.016.211-.03s.138-.034.208-.046c.018,0,.037,0,.054-.007l.02-.005.026,0c.116-.016.234-.022.35-.043.064-.012.128-.025.191-.039a.535.535,0,0,0,.1,0,.791.791,0,0,1,.1-.014c.036,0,.055-.013.091-.013a1.548,1.548,0,0,0,.188-.042c.032,0,.058-.012.091-.013a.438.438,0,0,0,.055-.016.393.393,0,0,0,.055,0,.219.219,0,0,1,.042-.011c.016,0,.034,0,.05,0s.02-.012.033-.016.036,0,.054,0,.057-.02.086-.025.07-.011.105-.02c.017-.005.033,0,.049-.007s.02-.012.034-.016a.272.272,0,0,0,.046,0,.2.2,0,0,1,.045-.011.486.486,0,0,0,.1-.029.351.351,0,0,0,.051-.005c.018-.007.036-.016.053-.021.058-.02.111-.033.165-.053.072-.028.145-.053.217-.078.108-.028.215-.057.32-.088.128-.038.249-.095.373-.145.046-.018.092-.039.138-.059s.107-.034.158-.057a6.434,6.434,0,0,0,.614-.334l.021-.012a12.49,12.49,0,0,0,1.013-.827c.062-.061.122-.128.183-.2l.016-.014a.444.444,0,0,0,.075-.074c.045-.058.095-.112.14-.17s.065-.087.1-.133a1.607,1.607,0,0,0,.108-.17.521.521,0,0,1,.034-.066.488.488,0,0,0,.036-.055,1.4,1.4,0,0,0,.117-.278l.034-.144c.011-.049.022-.1.036-.144,0-.013.008-.028.011-.041a.075.075,0,0,1,0-.017l.008-.011a.15.15,0,0,0,0-.034.155.155,0,0,1,.007-.036.242.242,0,0,0,0-.043.191.191,0,0,1,.009-.039.6.6,0,0,0,0-.1c0-.1.005-.2,0-.3,0-.014-.008-.025-.009-.04s0-.025-.007-.041a.411.411,0,0,1,0-.1.14.14,0,0,0-.008-.041.279.279,0,0,1,0-.047.19.19,0,0,0-.012-.054l-.012-.119a3.03,3.03,0,0,0-.037-.305c-.016-.074-.025-.149-.039-.223a1.3,1.3,0,0,0-.038-.128c-.011-.042-.022-.084-.034-.125s-.029-.109-.041-.163a.806.806,0,0,0-.042-.136c-.017-.046-.026-.095-.041-.14s-.038-.07-.053-.1-.033-.062-.049-.095c-.036-.071-.082-.133-.122-.2a1.1,1.1,0,0,0-.182-.2,1.359,1.359,0,0,0-.172-.14c-.055-.039-.105-.086-.162-.125a1.027,1.027,0,0,0-.093-.059c-.026-.014-.047-.04-.073-.053a1.973,1.973,0,0,0-.2-.087c-.041-.017-.083-.025-.125-.038l-.083-.029c-.079-.022-.158-.032-.238-.051a.5.5,0,0,0-.125,0c-.039,0-.072-.014-.112-.013-.167,0-.335,0-.5,0-.022,0-.046,0-.07,0a.262.262,0,0,0-.055.014.259.259,0,0,1-.055,0,.245.245,0,0,0-.063.013c-.021,0-.042,0-.063,0a.4.4,0,0,0-.047.014.526.526,0,0,0-.063.011.288.288,0,0,0-.057.02,1.293,1.293,0,0,1-.186.066l-.036.005-.162.034c-.036.007-.072.011-.108.02s-.066.017-.1.028-.063.028-.1.041-.09.029-.133.046-.059.017-.09.028-.059.028-.09.04a1.754,1.754,0,0,0-.163.066c-.033.016-.062.036-.095.051a.624.624,0,0,0-.126.092l-.112.088a1.18,1.18,0,0,0-.095.088c-.03.03-.062.057-.093.084a.773.773,0,0,1-.074.055.418.418,0,0,0-.054.054.447.447,0,0,1-.087.07.193.193,0,0,0-.038.034c-.029.029-.061.054-.088.083s-.062.082-.1.117c-.063.062-.116.136-.178.2a2.334,2.334,0,0,0-.184.212c-.041.053-.087.1-.126.153a2.76,2.76,0,0,0-.192.252.51.51,0,0,1-.071.088l-.033.036a.307.307,0,0,1-.046.038c-.065.054-.126.112-.19.166s-.137.1-.2.159a1.221,1.221,0,0,1-.212.153,1.162,1.162,0,0,1-.333.122c-.075.016-.147.045-.224.061a.991.991,0,0,1-.109.018l-.046.007-.042-.005a.638.638,0,0,0-.071,0c-.02,0-.034-.009-.054-.009s-.054,0-.082,0-.061-.007-.091-.009c-.047-.005-.1-.009-.143-.017s-.074-.022-.113-.028a.5.5,0,0,1-.137-.042c-.046-.018-.088-.041-.134-.059a.538.538,0,0,1-.057-.026.43.43,0,0,0-.051-.033.285.285,0,0,1-.045-.034c-.013-.009-.029-.012-.042-.022a.612.612,0,0,1-.059-.058l-.018-.017,0,0-.017-.018-.116-.146c-.021-.028-.045-.049-.066-.075s-.032-.036-.047-.053-.033-.032-.049-.047-.034-.037-.051-.054-.045-.062-.074-.086-.042-.043-.066-.067a.3.3,0,0,1-.038-.043.239.239,0,0,0-.034-.038c-.011-.013-.014-.029-.026-.043l-.036-.045c-.029-.036-.049-.078-.076-.115s-.05-.053-.071-.083a.6.6,0,0,1-.037-.049c-.009-.013-.02-.02-.029-.032A.525.525,0,0,0,287,192.8c-.037-.037-.068-.078-.105-.115s-.053-.065-.08-.095-.051-.058-.079-.084a.126.126,0,0,1-.032-.033.208.208,0,0,0-.036-.041.93.93,0,0,1-.108-.141c-.012-.02-.021-.037-.036-.057a.408.408,0,0,1-.029-.053c0-.005-.011-.005-.013-.009l-.014-.025-.028-.032c-.022-.026-.045-.051-.068-.075l-.034-.036c-.03-.042-.061-.083-.092-.124a4.071,4.071,0,0,0-.286-.3c-.084-.086-.161-.176-.253-.254-.126-.1-.245-.213-.378-.308a3.257,3.257,0,0,0-.465-.27l-.038-.018a.456.456,0,0,0-.07-.051,1.443,1.443,0,0,0-.194-.1c-.054-.021-.1-.05-.151-.074l0,0-.014-.011a.54.54,0,0,0-.136-.066l-.154-.057-.061-.022a6.238,6.238,0,0,0-1.031-.324c-.176-.047-.353-.1-.532-.15l-.058-.02c-.05-.013-.1-.022-.15-.033-.125-.03-.251-.057-.377-.075l-.026,0a2.8,2.8,0,0,0-.457-.09.953.953,0,0,0-.141-.024l-.075-.005-.092-.013-.072-.009a.366.366,0,0,0-.065-.009,1.292,1.292,0,0,1-.144-.018.95.95,0,0,1-.121-.016c-.022,0-.045,0-.067,0a.341.341,0,0,0-.051-.007c-.03,0-.055-.009-.086-.009s-.058-.009-.09-.009a.6.6,0,0,0-.084,0l-.012,0a.617.617,0,0,0-.13,0h-.065a.568.568,0,0,0-.134.016h0c-.07,0-.14-.007-.209-.007-.238,0-.478.024-.718.036l-.113.009c-.046,0-.092.009-.138.008a.9.9,0,0,0-.1.008c-.034,0-.07,0-.1,0l-.072.009h-.148c-.042,0-.083.008-.125.011s-.07,0-.1,0a.849.849,0,0,0-.153.008.547.547,0,0,1-.08,0c-.032,0-.062.009-.095.009-.063,0-.128.013-.191.017-.021,0-.038.009-.059.011a.313.313,0,0,0-.07.007c-.042.007-.086.005-.128.013s-.075,0-.112.008a.769.769,0,0,1-.1.016c-.016,0-.029.009-.045.009a.115.115,0,0,0-.037.007.642.642,0,0,1-.1.021c-.055.008-.107.029-.162.042-.018.005-.034,0-.053.011-.074.011-.148.028-.22.041-.054.009-.108.028-.162.041-.038.008-.078.021-.116.032s-.082.029-.124.037l-.119.028a5.6,5.6,0,0,0-.544.18c-.045.016-.088.032-.133.046a.187.187,0,0,0-.046.022.366.366,0,0,1-.049.018c-.046.018-.09.043-.134.064s-.1.038-.143.061-.082.029-.12.049-.084.041-.128.058-.1.054-.155.076c-.03.012-.054.03-.084.042s-.078.041-.117.061a1.419,1.419,0,0,0-.153.082c-.017.012-.03.025-.046.037s-.026.016-.038.025l-.009.009a.115.115,0,0,0-.034.024c-.042.025-.08.061-.122.088s-.055.045-.083.067-.04.045-.061.066a.689.689,0,0,0-.093.119,1.083,1.083,0,0,1-.154.157c-.025.026-.047.053-.07.08a1.044,1.044,0,0,0-.086.084c-.026.03-.05.061-.079.088s-.068.072-.1.108-.08.09-.118.136a.75.75,0,0,0-.05.082c-.016.025-.04.045-.055.07-.03.047-.066.092-.1.138l-.1.141a.843.843,0,0,1-.046.072.27.27,0,0,0-.028.046c-.013.026-.032.049-.043.076s-.018.043-.026.066a.726.726,0,0,1-.054.117c-.016.026-.024.054-.041.08s-.026.04-.038.059c-.022.041-.049.08-.074.12s-.046.071-.065.108-.017.046-.026.068-.029.047-.041.072c-.039.08-.079.161-.117.241-.022.049-.053.094-.079.14a.628.628,0,0,0-.09.158.27.27,0,0,0-.029.046,2.02,2.02,0,0,1-.109.2c-.026.045-.061.087-.09.13s-.053.068-.071.1a.887.887,0,0,1-.1.137.312.312,0,0,1-.095.07.76.76,0,0,1-.2.083,1,1,0,0,1-.107.032c-.032.007-.067.008-.1.016a.162.162,0,0,1-.043,0c-.014,0-.022.008-.037.011a.6.6,0,0,1-.084,0h-.12a.738.738,0,0,1-.078-.008,1.461,1.461,0,0,1-.224-.045.82.82,0,0,1-.145-.063c-.071-.037-.146-.061-.213-.1a.607.607,0,0,1-.095-.067,1.031,1.031,0,0,0-.091-.078c-.022-.017-.039-.039-.061-.058a.666.666,0,0,1-.057-.046c-.03-.032-.066-.057-.093-.088a3.327,3.327,0,0,0-.25-.259c-.08-.078-.157-.162-.238-.237-.19-.178-.353-.382-.541-.561-.083-.078-.171-.149-.259-.219a.872.872,0,0,0-.095-.058c-.071-.046-.148-.087-.223-.126s-.122-.079-.184-.117-.105-.057-.158-.086a.876.876,0,0,0-.17-.071c-.028-.008-.053-.022-.08-.03s-.043-.013-.065-.021c-.058-.021-.119-.032-.176-.047s-.108-.028-.162-.038a2.127,2.127,0,0,0-.388-.028h-.311c-.037,0-.071.011-.108.011h-.072c-.03,0-.059.009-.088.009a.757.757,0,0,0-.079.007c-.063.011-.128.007-.19.016s-.126.016-.188.029-.116.021-.169.038c-.021.007-.037.02-.058.025s-.053.016-.08.022c-.129.03-.254.08-.383.116a1.774,1.774,0,0,0-.315.142,1.245,1.245,0,0,0-.186.116.556.556,0,0,0-.083.074c-.033.037-.068.067-.1.105a.881.881,0,0,0-.086.1c-.018.036-.041.068-.061.1a1.7,1.7,0,0,0-.132.24,1.167,1.167,0,0,0-.057.125c-.011.038-.024.074-.034.111-.022.084-.033.171-.055.255-.012.041-.014.086-.022.128a.95.95,0,0,0-.02.12.675.675,0,0,0-.009.072.278.278,0,0,1-.007.047.465.465,0,0,0,0,.105v.09c0,.032.009.058.009.09a.068.068,0,0,0,0,.017,4.665,4.665,0,0,0,.012.878,2.274,2.274,0,0,0,.1.457v.005l.005.011.005.018a.08.08,0,0,0,0,.025.627.627,0,0,0,.017.067.4.4,0,0,0,.018.057c.008.02.013.039.02.059a1.264,1.264,0,0,0,.045.141.5.5,0,0,0,.03.066l.018.042c.012.024.025.049.04.074.017.041.032.082.05.12a1.153,1.153,0,0,0,.119.18l.016.021.008.017.016.017a1.191,1.191,0,0,0,.095.136c.028.03.058.061.083.092a.447.447,0,0,0,.045.042.327.327,0,0,1,.053.059c.028.038.058.076.086.119.013.018.028.036.043.054a.375.375,0,0,0,.033.046c.025.021.044.046.068.067s.037.04.055.058a.954.954,0,0,0,.086.078l.026.02a.066.066,0,0,0,.021.014.769.769,0,0,0,.112.115,1.618,1.618,0,0,0,.269.2c.122.062.253.113.374.178l.059.028.02.011c.026.013.054.025.082.036s.072.029.109.045a.973.973,0,0,0,.124.042.6.6,0,0,0,.067.012,2.838,2.838,0,0,0,.379.113c.095.016.19.029.283.042l.059.017c.018,0,.037,0,.055.008s.024.011.036.013l.035.014a.266.266,0,0,0,.046.011c.033.008.065.017.1.022s.083.022.126.028a.263.263,0,0,1,.055.013c.02.005.04,0,.059.009.037.008.079.017.117.022s.086.012.129.02a1.135,1.135,0,0,0,.149.025,2.992,2.992,0,0,1,.375.037c.038.008.078.014.116.024l.063.011.034.007c.016,0,.032,0,.047,0,.032.005.063.014.095.02.016,0,.032,0,.047,0s.053.009.08.009c.12,0,.237.009.357.025a1.147,1.147,0,0,0,.117.011c.025,0,.047.009.072.011s.061,0,.091,0a.97.97,0,0,0,.107.008c.037,0,.075,0,.112,0s.079.009.12.009a1.458,1.458,0,0,1,.215,0,.626.626,0,0,0,.121.016.22.22,0,0,1,.051.008.344.344,0,0,0,.074,0,1.046,1.046,0,0,1,.17,0c.066.011.133,0,.2.012.038.005.075,0,.112,0a.97.97,0,0,0,.107.009c.066,0,.132,0,.2,0s.12.009.182.008c.026,0,.049.007.076.009s.072,0,.109.007c.018,0,.038,0,.058.007a12.976,12.976,0,0,0-.394,1.605c-.042.271-.087.545-.14.819-.061.312-.087.643-.12.959-.03.295-.1.575-.112.872-.014.332-.059.662-.1.993s-.054.654-.072.984l-.076,1.3-.067,1.173c-.014.224-.013.45-.038.674-.034.3-.012.606-.028.907-.013.233-.026.466-.021.7,0,.17.017.337.024.506s0,.332,0,.5c-.007.345-.005.69,0,1.036,0,.145,0,.29,0,.436,0,.514-.005,1.027.011,1.541,0,.138.012.277.021.415v.062c0,.02,0,.041,0,.062a.3.3,0,0,1-.016.07.792.792,0,0,0,0,.125v.586a.415.415,0,0,0,.014.07.792.792,0,0,1,0,.125v.321a.109.109,0,0,0,0,.036c0,.011.011.018.013.028a.493.493,0,0,1,0,.062c0,.021.011.029.014.049s-.005.043,0,.063.016.03.015.055c0,.041,0,.086,0,.126l.005.021c-.022.013-.022.034-.02.062a.356.356,0,0,1,.015.076v.091a.694.694,0,0,0,.014.091.575.575,0,0,1,0,.083c0,.058,0,.117,0,.175,0,.03.013.046.014.076a.441.441,0,0,0,0,.083c0,.013.012.018.013.036a.3.3,0,0,1,0,.049.341.341,0,0,0,.007.083.3.3,0,0,1,.008.083h-.008c-.021.005-.041,0-.062.007a.49.49,0,0,1-.063.014.259.259,0,0,0-.055.013c-.021,0-.042,0-.063,0-.042.011-.083.017-.125.024-.02,0-.036.012-.057.014a.215.215,0,0,0-.055.014.592.592,0,0,1-.111.028.938.938,0,0,0-.1.028c-.066.02-.128.053-.191.068a.827.827,0,0,0-.155.058h-.009c-.018.005-.041.017-.061.021a1.4,1.4,0,0,0-.137.034c-.049.017-.1.03-.145.049a2.622,2.622,0,0,1-.275.095,1.538,1.538,0,0,0-.149.061c-.057.024-.115.047-.172.07a.824.824,0,0,0-.133.063c-.045.03-.1.05-.141.079s-.08.034-.12.055-.1.054-.15.08a2.335,2.335,0,0,0-.249.142,1.042,1.042,0,0,1-.1.057c-.154.068-.3.147-.449.226a3.287,3.287,0,0,0-.446.284,4.562,4.562,0,0,0-.428.277c-.054.051-.1.107-.158.155a1.31,1.31,0,0,0-.112.1c-.022.024-.034.053-.057.076-.07.074-.155.138-.229.211a2.438,2.438,0,0,1-.2.2,2.633,2.633,0,0,0-.407.432c-.071.091-.148.178-.223.265a2.059,2.059,0,0,0-.167.245c-.108.174-.254.324-.361.5-.078.128-.173.246-.254.373-.166.254-.323.51-.479.768-.043.07-.094.138-.13.212s-.078.167-.12.25c-.076.153-.133.32-.2.479s-.15.32-.216.486-.134.331-.192.5c-.095.275-.2.553-.269.834-.018.07-.057.134-.079.2s-.037.12-.057.179c-.026.076-.042.154-.07.229s-.024.118-.045.178a1.689,1.689,0,0,0-.043.179c-.008.022-.017.045-.024.067s-.021.046-.029.07c-.026.095-.062.192-.084.286-.013.053-.02.108-.033.161s-.016.092-.028.14a1.221,1.221,0,0,0-.038.153.338.338,0,0,1-.014.063c-.007.022-.008.049-.013.07-.024.084-.049.171-.07.258a4.674,4.674,0,0,0-.036,1.3C261.966,228.626,290.93,228.542,290.993,228.447Z" transform="translate(0 0)" fill="#161615"/>
    <path id="Path_128" data-name="Path 128" d="M271.212,199.53a.829.829,0,0,0,.163.274.958.958,0,0,0,.292.236,1.886,1.886,0,0,0,.812.122,1.5,1.5,0,0,0,.424-.07c.055-.016.109-.025.162-.045s.1-.037.157-.054.107-.042.162-.058a3.546,3.546,0,0,1,.369-.1l.034,0,.017,0c.1-.018.2-.02.3-.03.121-.014.24-.046.361-.059.09-.011.18-.012.269-.026.124-.021.3-.041.365-.165a.5.5,0,0,0,.034-.328.37.37,0,0,0-.075-.149,1.16,1.16,0,0,0-.246-.183,1.582,1.582,0,0,0-.307-.121c-.225-.08-.452-.166-.685-.224-.129-.032-.263-.067-.4-.094s-.271-.034-.408-.05l-.205-.026a3.01,3.01,0,0,0-.653-.025,1.782,1.782,0,0,0-.321.055,1.155,1.155,0,0,0-.5.246.948.948,0,0,0-.2.487.4.4,0,0,0,0,.178C271.164,199.386,271.193,199.454,271.212,199.53Z" transform="translate(2.952 2.792)" fill="#161615"/>
    <path id="Path_129" data-name="Path 129" d="M273.306,216.218c0-.013,0-.029,0-.042s-.012-.013-.016-.025,0-.029,0-.042c-.009-.055-.032-.109-.045-.161s-.037-.093-.049-.141c-.005-.026-.009-.055-.016-.082s-.012-.026-.014-.041,0-.034,0-.051l-.011-.03-.015-.041c-.009-.03-.014-.065-.026-.1s-.014-.036-.022-.053c-.01-.057-.021-.113-.036-.17a2.43,2.43,0,0,0-.216-.544c-.049-.092-.1-.182-.154-.27s-.1-.188-.157-.28a3.151,3.151,0,0,0-.209-.3,3.014,3.014,0,0,0-.207-.259c-.041-.042-.091-.075-.132-.117s-.084-.075-.126-.112c-.067-.059-.149-.107-.209-.171a1.443,1.443,0,0,0-.18-.154c-.051-.041-.1-.083-.145-.129-.07-.066-.147-.126-.224-.186-.037-.028-.076-.051-.116-.078a.945.945,0,0,0-.12-.09h0a2.018,2.018,0,0,0-1.5-.643,2.072,2.072,0,0,0-1.42.39,1.508,1.508,0,0,0-.118.124c-.021.016-.041.032-.062.05a1.087,1.087,0,0,0-.254.349.958.958,0,0,0-.054.126c-.007.022-.016.046-.021.07s0,.036,0,.054a.488.488,0,0,0-.014.066v.057a.65.65,0,0,0,0,.124,1.707,1.707,0,0,0,.205.487c.042.076.1.145.145.217a1.455,1.455,0,0,0,.191.191.978.978,0,0,0,.253.19c.043.022.079.057.122.078s.091.049.137.074c.1.053.2.1.3.153a1.849,1.849,0,0,1,.286.209c.084.071.169.136.246.213.017.018.037.036.054.054a.772.772,0,0,0,.049.061.761.761,0,0,1,.1.1,2.125,2.125,0,0,1,.28.494c.046.115.074.238.129.348a1.372,1.372,0,0,1,.053.14c.02.051.037.1.058.154a1.558,1.558,0,0,0,.071.158.561.561,0,0,1,.057.1c.011.034.032.061.043.095a.9.9,0,0,0,.09.178,1.347,1.347,0,0,0,.095.149,1.062,1.062,0,0,0,.122.121,1.63,1.63,0,0,0,.158.112.994.994,0,0,0,.328.169,2.059,2.059,0,0,0,.321.072c.121.011.248,0,.369,0h.205a.392.392,0,0,0,.1-.011c.054-.011.111,0,.165-.013.087-.016.171-.03.255-.051a.506.506,0,0,0,.113-.041c.053-.025.109-.037.162-.065a1.873,1.873,0,0,0,.259-.147l.007,0a1.043,1.043,0,0,0,.205-.191.735.735,0,0,0,.141-.242.377.377,0,0,0,.026-.124c0-.029.015-.051.015-.082s0-.065,0-.1v-.165a.815.815,0,0,0,0-.161C273.315,216.239,273.308,216.231,273.306,216.218Z" transform="translate(1.77 7.091)" fill="#161615"/>
    <path id="Path_130" data-name="Path 130" d="M277.135,217.638a1.818,1.818,0,0,0-.174-.456c-.043-.075-.084-.149-.129-.224a1.027,1.027,0,0,0-.158-.188.9.9,0,0,0-.162-.138.876.876,0,0,1-.15-.105c-.086-.08-.2-.132-.29-.205a1.535,1.535,0,0,1-.266-.265,1.644,1.644,0,0,1-.329-.732,4.259,4.259,0,0,0-.092-.428c-.022-.088-.053-.17-.08-.257a1.361,1.361,0,0,0-.1-.211,1.921,1.921,0,0,0-.12-.208c-.022-.032-.045-.066-.067-.1s-.053-.051-.075-.08a1.4,1.4,0,0,0-.182-.171.819.819,0,0,0-.158-.136c-.058-.034-.107-.076-.162-.115a.308.308,0,0,0-.074-.047c-.028-.012-.055-.018-.082-.029a.961.961,0,0,0-.178-.057,1.054,1.054,0,0,0-.2,0,1.077,1.077,0,0,0-.741.258c-.057.054-.117.108-.171.163a.821.821,0,0,0-.124.194,1.783,1.783,0,0,0-.092.2,1.732,1.732,0,0,0-.066.174c-.016.068-.029.134-.045.2s-.016.117-.028.178a1.97,1.97,0,0,0-.039.394c0,.138,0,.277,0,.415,0,.04.015.075.015.115a.618.618,0,0,0,.007.111c.014.067.025.136.038.2.03.146.07.288.112.432a2.864,2.864,0,0,0,.125.39c.051.111.09.228.14.338a2.6,2.6,0,0,0,.155.286c.053.084.105.169.162.25l.095.133c.014.021.02.049.034.071a.46.46,0,0,0,.047.054,1.557,1.557,0,0,1,.1.126c.025.033.054.065.078.1s.041.082.072.12.045.063.074.091c.063.062.121.132.184.2.042.045.094.084.133.129a.462.462,0,0,0,.115.08,2.641,2.641,0,0,0,.24.133.749.749,0,0,1,.112.059c.02.013.058.049.084.042l.348.138c.016.021.045.013.067.017,0,0,.009.011.016.012s.021,0,.03,0,.024.013.047.014a.365.365,0,0,1,.063.014,2.376,2.376,0,0,0,.523.028c.042,0,.078-.013.119-.014a.376.376,0,0,0,.094-.009c.086-.025.17-.047.254-.08a2.1,2.1,0,0,0,.387-.233c.033-.021.058-.051.091-.071a.33.33,0,0,0,.063-.042c.039-.036.083-.068.119-.107a.571.571,0,0,0,.136-.182.975.975,0,0,0,.059-.132c.012-.045.02-.091.032-.136a.964.964,0,0,0,.02-.245,1.392,1.392,0,0,0,0-.234C277.167,217.783,277.153,217.711,277.135,217.638Z" transform="translate(3.413 7.589)" fill="#161615"/>
    <path id="Path_131" data-name="Path 131" d="M281.513,214.385a.655.655,0,0,0,.112-.105c.032-.047.068-.091.1-.138.014-.022.036-.036.05-.059a.5.5,0,0,0,.03-.059,1.379,1.379,0,0,0,.058-.166,1.427,1.427,0,0,0,.059-.34c.005-.054.014-.105.016-.159,0-.022,0-.043,0-.066a.341.341,0,0,0,0-.051c0-.016-.012-.03-.016-.047s0-.046-.005-.068a.607.607,0,0,0-.03-.086c-.005-.014,0-.032-.009-.047s-.013-.026-.018-.041a.869.869,0,0,0-.034-.08,1.452,1.452,0,0,0-.2-.267.719.719,0,0,0-.12-.117c-.021-.013-.034-.034-.054-.049a.479.479,0,0,0-.093-.062c-.05-.022-.094-.057-.145-.076s-.12-.041-.178-.063a2.119,2.119,0,0,0-.331-.1,1.525,1.525,0,0,0-.151-.028l-.075-.009c-.07-.008-.14-.008-.209-.018a2.5,2.5,0,0,0-.4-.026c-.071,0-.145.012-.215.013a.4.4,0,0,0-.057,0,.457.457,0,0,1-.072.011c-.014,0-.026,0-.039,0-.033,0-.065.012-.1.015a.176.176,0,0,0-.053.005c-.034.009-.062.009-.1.016a.757.757,0,0,0-.122.013,1.294,1.294,0,0,1-.158.029c-.018,0-.036,0-.054.005s-.051.02-.079.025c-.071.013-.142.036-.212.055a1.837,1.837,0,0,0-.219.086.46.46,0,0,1-.058.013c-.028.009-.051.025-.078.034-.045.016-.088.03-.132.047s-.063.04-.1.054l-.041.017-.029.012-.03.021-.013,0c-.076.025-.154.05-.23.076s-.151.068-.229.1-.155.061-.232.1a.844.844,0,0,0-.117.063c-.035.024-.071.039-.107.061a.874.874,0,0,0-.1.068c-.061.029-.12.066-.182.1a1.889,1.889,0,0,0-.18.1,3.978,3.978,0,0,0-.329.24,1.488,1.488,0,0,0-.153.134,1.756,1.756,0,0,0-.142.138c-.037.046-.065.092-.1.141a1.412,1.412,0,0,0-.1.159c-.017.036-.043.063-.062.1a.51.51,0,0,1-.036.071.581.581,0,0,0-.072.187,1.712,1.712,0,0,0-.038.182.379.379,0,0,0-.016.055c0,.013,0,.028,0,.042v.163c-.005.022-.01.045-.014.07a1,1,0,0,0,0,.109,1.181,1.181,0,0,0,.028.312.827.827,0,0,0,.057.157c.022.049.049.092.074.14a.288.288,0,0,0,.041.066l.051.057c.034.038.07.076.1.115a.674.674,0,0,0,.126.092c.02.014.042.025.062.038a.452.452,0,0,0,.07.051c.042.018.083.05.126.072a1.172,1.172,0,0,0,.159.062c.022.008.046.014.07.021a1.034,1.034,0,0,0,.136.047,1.228,1.228,0,0,0,.279.017.412.412,0,0,0,.07,0,.484.484,0,0,1,.063-.015.324.324,0,0,0,.062,0,.191.191,0,0,1,.036-.012c.016,0,.033,0,.049,0,.042-.008.084-.02.125-.032a.658.658,0,0,0,.14-.061c.032-.017.064-.028.1-.043s.082-.055.126-.078a.97.97,0,0,0,.226-.161c.068-.063.14-.128.208-.195s.146-.121.221-.182c.032-.025.063-.049.1-.072s.082-.047.122-.074h0l.1-.046.018-.007a1.251,1.251,0,0,1,.133-.026c.016,0,.026-.013.042-.016s.033,0,.049,0l.049-.013a.265.265,0,0,0,.03-.011c.017,0,.033,0,.05-.007s.017-.009.03-.011c.033,0,.053-.012.084-.013a.391.391,0,0,0,.057-.011,4.167,4.167,0,0,0,1.142-.179l.021-.008c.042-.007.083-.013.124-.022.067-.013.129-.042.195-.062a1.8,1.8,0,0,0,.237-.1l.017-.008c.029-.009.057-.017.086-.028a1.8,1.8,0,0,0,.286-.141.3.3,0,0,0,.072-.045.288.288,0,0,1,.057-.05.429.429,0,0,0,.066-.042Z" transform="translate(4.324 7.137)" fill="#161615"/>
    <path id="Path_132" data-name="Path 132" d="M275.058,200.657c.018.086.041.167.063.252.012.049.034.1.05.142a.8.8,0,0,0,.065.13,2.712,2.712,0,0,0,.182.287,2.433,2.433,0,0,0,.175.24,3.111,3.111,0,0,0,.25.275c.091.08.195.146.294.219a2.368,2.368,0,0,0,.44.266c.12.054.237.113.358.163.225.092.437.219.664.3.159.061.323.105.479.171a7.057,7.057,0,0,0,.71.246c.227.068.446.162.676.219.444.111.884.236,1.327.345.155.04.309.086.466.113s.307.028.46.054a2.536,2.536,0,0,0,.519.028c.068,0,.134-.011.2-.012a.767.767,0,0,0,.1-.012h.025c.016,0,.029-.007.045-.007a.705.705,0,0,0,.1-.013l.043-.007a.225.225,0,0,1,.029-.007.269.269,0,0,0,.054-.013c.039-.011.08-.022.121-.032a.561.561,0,0,0,.067-.02l.025-.009c.016,0,.032-.012.047-.016a.223.223,0,0,1,.029-.005l.022-.009.026-.008a.333.333,0,0,0,.055-.032,1.133,1.133,0,0,0,.124-.084c.02-.02.041-.037.061-.055l.016-.017a.242.242,0,0,1,.028-.024.216.216,0,0,0,.024-.025l.022-.02a.29.29,0,0,1,.029-.028.263.263,0,0,0,.042-.051c.046-.051.086-.109.132-.162a.3.3,0,0,0,.044-.063c.011-.025.024-.049.034-.075.024-.062.046-.122.068-.186s.03-.105.045-.159.025-.105.037-.157.017-.086.029-.128c.007-.025.013-.05.018-.076l.008-.046c0-.014.011-.026.012-.041.007-.033.007-.068.016-.1a.1.1,0,0,0,.005-.029c0-.013.005-.024.007-.037,0-.053-.005-.107,0-.158a.383.383,0,0,0,.008-.054.362.362,0,0,1,0-.037.183.183,0,0,0,.008-.025V202a.315.315,0,0,0-.008-.051c0-.025,0-.053,0-.078a.4.4,0,0,1-.007-.039V201.8c0-.022-.007-.042-.007-.064a.342.342,0,0,0-.007-.082c0-.012,0-.024,0-.036s-.005-.025-.007-.039-.005-.041-.008-.059l-.008-.046c-.007-.029-.012-.061-.017-.091s-.013-.053-.018-.079-.011-.051-.016-.078c-.009-.045-.02-.091-.03-.137,0-.013-.009-.025-.013-.037l-.008-.03a.319.319,0,0,0-.018-.05.884.884,0,0,1-.034-.1,1.834,1.834,0,0,0-.068-.2,1.435,1.435,0,0,0-.088-.207c-.038-.061-.075-.124-.108-.186-.009-.017-.02-.034-.029-.05s-.017-.03-.026-.047-.039-.063-.055-.1a.444.444,0,0,0-.055-.084c-.021-.026-.037-.051-.059-.076l-.03-.041-.017-.02-.011-.018-.016-.02q-.077-.109-.154-.213a2.641,2.641,0,0,0-.431-.41,4.493,4.493,0,0,0-.458-.361c-.171-.111-.357-.2-.531-.307a2.863,2.863,0,0,0-.4-.212l-.022-.014-.049-.025c-.018-.011-.037-.021-.057-.03a.161.161,0,0,1-.032-.02.183.183,0,0,0-.033-.016.494.494,0,0,1-.054-.037c-.017-.008-.033-.017-.051-.025l-.091-.046c-.063-.034-.122-.078-.188-.105-.036-.016-.071-.028-.105-.045l-.1-.049c-.018-.009-.041-.016-.058-.026a.231.231,0,0,0-.043-.024c-.018-.007-.034-.016-.053-.024l-.054-.024a.114.114,0,0,0-.025-.016.237.237,0,0,1-.033-.011.181.181,0,0,0-.021-.013.308.308,0,0,0-.033-.009c-.038-.016-.072-.036-.111-.05s-.072-.036-.108-.049l-.059-.025c-.02-.008-.041-.011-.062-.021a.365.365,0,0,0-.036-.011c-.012,0-.024-.011-.036-.016s-.034-.013-.053-.018l-.024-.008c-.022-.009-.043-.02-.063-.03a.457.457,0,0,0-.057-.017c-.017-.007-.034-.014-.051-.02a.382.382,0,0,1-.066-.02.373.373,0,0,0-.054-.018l-.207-.058c-.037-.011-.075-.016-.111-.025-.02-.005-.041-.005-.061-.009l-.034-.005c-.008,0-.014-.005-.024-.007s-.017,0-.025,0-.016-.007-.026-.007-.033-.007-.051-.007h-.058a.465.465,0,0,1-.047-.007.138.138,0,0,1-.033,0c-.009,0-.009-.005-.02-.007s-.016,0-.022,0l-.016-.007c-.008,0-.018,0-.026,0a.151.151,0,0,1-.024-.005.2.2,0,0,0-.049,0c-.034,0-.063-.007-.1-.007-.017,0-.033,0-.049,0s-.032-.007-.05-.007a.114.114,0,0,1-.049-.005.3.3,0,0,0-.049,0h-.192a.4.4,0,0,0-.1,0c-.034.008-.071,0-.105.013l-.014,0a.115.115,0,0,0-.03,0l-.025.007a.087.087,0,0,0-.018,0h-.009c-.02,0-.036.005-.055.007a.223.223,0,0,0-.041.008H277.7l-.016,0a.18.18,0,0,0-.026,0l-.012,0-.017,0h-.005c-.014,0-.029.005-.043.005a.1.1,0,0,0-.029,0,.049.049,0,0,1-.021.005.345.345,0,0,0-.051.007l-.03.007a.127.127,0,0,0-.022,0l-.026.005c-.009,0-.011.005-.018.007s-.021,0-.032,0l-.021.005a.2.2,0,0,0-.049.009.483.483,0,0,0-.088.024c-.021.009-.043.016-.066.024-.065.018-.129.043-.194.063a2.941,2.941,0,0,0-1.392.9,2.237,2.237,0,0,0-.317.5,4.3,4.3,0,0,0-.151.5.917.917,0,0,0-.026.122c-.017.112-.022.226-.029.338a2.36,2.36,0,0,0-.009.237c0,.086,0,.179,0,.267A2,2,0,0,0,275.058,200.657Zm.947-1.076c.028-.079.061-.157.095-.234a1.7,1.7,0,0,1,.362-.51,1.79,1.79,0,0,1,.648-.41,3.589,3.589,0,0,1,.361-.116,1.866,1.866,0,0,1,.379-.078,3.393,3.393,0,0,1,.578.013c.145.017.28.045.421.066h0l.079.018a6,6,0,0,1,1.03.348l.074.042c.053.033.115.058.167.092s.09.068.138.095c.026.014.053.032.079.047s.057.033.082.051.032.014.046.024l.04.024.087.053c.029.016.057.036.084.051s.059.034.091.051l.022.011c.025.017.051.034.076.053a2.273,2.273,0,0,0,.225.146l-.046.039c-.037.036-.07.075-.111.108s-.057.055-.087.082-.05.054-.075.082-.038.04-.055.059l-.057.059a.389.389,0,0,1-.03.036c-.009.008-.02.014-.029.024a1.318,1.318,0,0,0-.1.105.114.114,0,0,1-.022.021.15.15,0,0,0-.018.025.153.153,0,0,1-.025.018.133.133,0,0,0-.029.032c-.017.024-.041.038-.058.061a.26.26,0,0,1-.026.028c-.014.013-.024.029-.037.042-.043.046-.087.092-.132.137-.024.024-.046.047-.071.068s-.038.043-.059.062c-.051.045-.1.095-.143.145-.087.092-.183.176-.273.267-.046.045-.091.09-.134.137-.022.024-.042.05-.065.074l-.074.074a1.914,1.914,0,0,0-.155.154c-.036.045-.071.091-.111.132a.979.979,0,0,0-.076.088.262.262,0,0,1-.029.037.081.081,0,0,0-.021.026c-.008.011-.017.018-.025.029a.2.2,0,0,1-.022.025c-.011.011-.024.021-.033.032-.034.042-.067.084-.1.128-.014.02-.028.041-.042.059l-.012.016-.041.045-.055.058c-.017.017-.032.037-.05.054s-.037.041-.057.061a.233.233,0,0,0-.024.026.293.293,0,0,1-.026.032c-.011.013-.024.024-.036.037a.409.409,0,0,0-.028.038l-.009,0c-.028-.008-.054-.021-.082-.029l-.053-.018,0,0-.4-.158c-.209-.082-.428-.17-.628-.269a5.673,5.673,0,0,1-.568-.345,1.43,1.43,0,0,1-.147-.109c-.033-.029-.067-.055-.1-.087a3.08,3.08,0,0,1-.283-.3,1.142,1.142,0,0,1-.179-.382,1.9,1.9,0,0,1-.109-.474A1.37,1.37,0,0,1,276,199.582Z" transform="translate(4.177 2.461)" fill="#161615"/>
  </g>
</svg>
